<!DOCTYPE svg PUBLIC "-//W3C//DTD SVG 1.1//EN" "http://www.w3.org/Graphics/SVG/1.1/DTD/svg11.dtd">
<!-- Uploaded to: SVG Repo, www.svgrepo.com, Transformed by: SVG Repo Mixer Tools -->
<svg fill="#ffffff" width="64px" height="64px" viewBox="-14.4 -14.4 52.80 52.80" xmlns="http://www.w3.org/2000/svg" stroke="#ffffff">
<g id="SVGRepo_bgCarrier" stroke-width="0">
<rect x="-14.4" y="-14.4" width="52.80" height="52.80" rx="26.4" fill="#119c72" strokewidth="0"/>
</g>
<g id="SVGRepo_tracerCarrier" stroke-linecap="round" stroke-linejoin="round"/>
<g id="SVGRepo_iconCarrier">
<path d="M21,4a1,1,0,0,0-1-1H17V2a1,1,0,0,0-1-1H8A1,1,0,0,0,7,2V3H4A1,1,0,0,0,3,4V22a1,1,0,0,0,1,1H20a1,1,0,0,0,1-1ZM9,3h6V5H9ZM19,21H5V5H7V6A1,1,0,0,0,8,7h8a1,1,0,0,0,1-1V5h2Zm-6-3a1,1,0,0,1-1,1H8a1,1,0,0,1,0-2h4A1,1,0,0,1,13,18Zm4-4a1,1,0,0,1-1,1H8a1,1,0,0,1,0-2h8A1,1,0,0,1,17,14Zm0-4a1,1,0,0,1-1,1H8A1,1,0,0,1,8,9h8A1,1,0,0,1,17,10Z"/>
</g>
</svg>