<!DOCTYPE svg PUBLIC "-//W3C//DTD SVG 1.1//EN" "http://www.w3.org/Graphics/SVG/1.1/DTD/svg11.dtd">
<!-- Uploaded to: SVG Repo, www.svgrepo.com, Transformed by: SVG Repo Mixer Tools -->
<svg fill="#db8b00" height="91px" width="91px" version="1.1" id="Layer_1" xmlns="http://www.w3.org/2000/svg" xmlns:xlink="http://www.w3.org/1999/xlink" viewBox="-404.49 -404.49 1321.00 1321.00" xml:space="preserve" stroke="#db8b00">
<g id="SVGRepo_bgCarrier" stroke-width="0">
<rect x="-404.49" y="-404.49" width="1321.00" height="1321.00" rx="660.5" fill="#e4e67f" strokewidth="0"/>
</g>
<g id="SVGRepo_tracerCarrier" stroke-linecap="round" stroke-linejoin="round"/>
<g id="SVGRepo_iconCarrier"> <g> <g> <path d="M509.769,480.665L275.102,11.331c-7.253-14.464-30.933-14.464-38.187,0L2.249,480.665 c-3.307,6.613-2.944,14.464,0.939,20.757c3.904,6.272,10.752,10.112,18.155,10.112h469.333c7.403,0,14.251-3.84,18.155-10.112 C512.713,495.129,513.075,487.278,509.769,480.665z M256.009,426.201c-11.776,0-21.333-9.557-21.333-21.333 s9.557-21.333,21.333-21.333s21.333,9.557,21.333,21.333S267.785,426.201,256.009,426.201z M277.342,340.867 c0,11.776-9.536,21.333-21.333,21.333c-11.797,0-21.333-9.557-21.333-21.333V191.534c0-11.776,9.536-21.333,21.333-21.333 c11.797,0,21.333,9.557,21.333,21.333V340.867z"/> </g> </g> </g>
</svg>